<svg xmlns="http://www.w3.org/2000/svg" height="2048" preserveAspectRatio="none" style="display: block;" version="1.1" viewBox="0 0 2048 2048" width="2048">
<path d="M 0 0 L 2048 0 L 2048 2048 L 0 2048 L 0 0 z" fill="rgb(252,251,251)" transform="translate(0,0)"></path>
<path d="M 395.498 1050.21 C 392.795 1045.31 389.453 1037.57 387.612 1032.4 C 343.569 908.587 390.283 728.486 442.32 614.866 C 521.811 445.266 664.654 313.611 840.16 248.184 C 901.177 225.659 967.43 208.555 1032.21 202.125 C 1046.98 200.562 1061.82 199.69 1076.67 199.51 C 1126.28 199.07 1175.9 198.94 1225.52 199.121 L 1458.53 199.084 L 1635.48 199.098 C 1647.27 199.091 1723.41 198.207 1727.28 199.991 L 1727.09 206.576 C 1727.5 223.119 1722.49 282.33 1717.19 295.492 C 1714.46 316.977 1707.44 342.571 1701.14 363.262 C 1678.53 437.472 1639.7 508.574 1577.27 556.705 C 1536.54 588.63 1487.39 607.991 1435.83 612.418 C 1411.42 614.327 1372.82 613.181 1347.41 613.141 L 1220.68 613.214 C 1206.06 613.213 1190.94 613.52 1176.36 613.068 C 1089.93 610.393 998.805 682.665 979.984 766.669 C 979.749 788.684 995.37 814.931 1019.09 816.498 C 1033.8 817.47 1048.78 817.041 1063.54 816.989 L 1150.31 816.855 L 1472.62 816.905 C 1479.52 816.905 1529.42 816.287 1538.43 817.925 C 1538.59 817.955 1538.67 820.05 1538.23 821.718 L 1538.08 822.718 C 1538.09 847.235 1523.8 910.243 1513.37 932.22 C 1511.89 937.45 1508.87 946.971 1506.38 951.783 C 1468.47 1055.47 1405.7 1157.43 1302.18 1205.57 C 1274.84 1218.6 1245.45 1226.79 1215.32 1229.76 C 1149.35 1236.01 1080.95 1216.91 1022.74 1261.66 C 1007.87 1273.08 995.284 1289.18 988.766 1306.87 C 979.952 1330.22 981.057 1356.16 991.824 1378.69 C 1017.99 1433.92 1073.06 1429.94 1123.89 1429.98 C 1160.09 1430.01 1199.95 1428.49 1235.87 1430.07 C 1242.07 1429.93 1248.28 1429.94 1254.48 1430.11 L 1434.83 1430.03 C 1471.14 1430.03 1512.06 1429.06 1547.98 1430.19 C 1548.56 1431.39 1548.77 1431.55 1549.03 1432.83 L 1548.95 1433.77 C 1549.1 1462.17 1532.99 1532.22 1521.65 1558.34 C 1488.27 1661.29 1427.21 1759.19 1328.26 1809.76 C 1297.57 1825.58 1264.43 1836.09 1230.24 1840.83 C 1198.72 1845.46 1158.5 1844.04 1125.79 1844.05 L 983.358 1843.99 C 941.718 1847.95 889.795 1846.51 847.7 1847.22 C 836.674 1847.41 796.209 1848.04 786.24 1847.01 C 771.862 1848.36 745.768 1850.12 731.725 1850.09 C 715.23 1851.75 695.826 1850.71 679.156 1850.68 C 552.311 1850.46 396.983 1817.04 342.491 1686.19 C 282.88 1572.91 341.153 1359.62 392.446 1251.35 C 411.758 1210.59 437.951 1169.31 464.058 1132.59 C 434.698 1109.44 411.3 1084.73 395.498 1050.21 z" fill="rgb(28,6,98)" transform="translate(0,0)"></path>
<path d="M 395.498 1050.21 C 392.795 1045.31 389.453 1037.57 387.612 1032.4 C 343.569 908.587 390.283 728.486 442.32 614.866 C 521.811 445.266 664.654 313.611 840.16 248.184 C 901.177 225.659 967.43 208.555 1032.21 202.125 C 1046.98 200.562 1061.82 199.69 1076.67 199.51 C 1126.28 199.07 1175.9 198.94 1225.52 199.121 L 1458.53 199.084 L 1635.48 199.098 C 1647.27 199.091 1723.41 198.207 1727.28 199.991 L 1727.09 206.576 C 1727.5 223.119 1722.49 282.33 1717.19 295.492 C 1714.46 316.977 1707.44 342.571 1701.14 363.262 C 1678.53 437.472 1639.7 508.574 1577.27 556.705 C 1536.54 588.63 1487.39 607.991 1435.83 612.418 C 1411.42 614.327 1372.82 613.181 1347.41 613.141 L 1220.68 613.214 C 1206.06 613.213 1190.94 613.52 1176.36 613.068 C 1089.93 610.393 998.805 682.665 979.984 766.669 C 972.12 732.588 989.846 685.642 1012.61 660.469 C 1036.74 633.79 1075.07 614.44 1110.84 612.178 C 1111.46 611.936 1115.09 610.709 1115.29 610.509 C 1115.05 610.144 1112.48 609.4 1112 609.241 L 1111.1 608.894 C 1082.68 607.639 1058.25 606.998 1029.95 612.471 C 910.827 635.507 812.349 739.845 858.329 864.273 C 789.141 885.658 744.183 903.122 680.514 940.163 C 673.032 893.981 675.03 850.293 684.733 804.623 C 631.559 815.959 585.756 822.011 532.315 836.855 C 479.486 854.24 432.655 876.232 405.732 927.934 C 383.75 970.149 389.749 1006.29 395.498 1050.21 z" fill="rgb(28,6,98)" transform="translate(0,0)"></path>
<path d="M 395.498 1050.21 C 392.795 1045.31 389.453 1037.57 387.612 1032.4 C 343.569 908.587 390.283 728.486 442.32 614.866 C 521.811 445.266 664.654 313.611 840.16 248.184 C 901.177 225.659 967.43 208.555 1032.21 202.125 C 1046.98 200.562 1061.82 199.69 1076.67 199.51 C 1126.28 199.07 1175.9 198.94 1225.52 199.121 L 1458.53 199.084 L 1635.48 199.098 C 1647.27 199.091 1723.41 198.207 1727.28 199.991 L 1726.55 200.853 C 1717.7 211.429 1712.13 221.401 1702.28 232.026 C 1664.27 273.14 1612.59 299.009 1556.9 304.798 C 1539.79 306.434 1519.66 306.25 1502.25 306.333 L 1420.82 306.377 L 1193.82 306.202 C 1149.56 306.25 1092.06 304.514 1049.16 310.053 C 904.641 328.71 763.215 401.003 668.62 512.458 C 595.966 598.062 544.258 725.708 532.315 836.855 C 479.486 854.24 432.655 876.232 405.732 927.934 C 383.75 970.149 389.749 1006.29 395.498 1050.21 z" fill="rgb(53,43,248)" transform="translate(0,0)"></path>
<path d="M 684.263 805.54 C 721.779 645.103 798.425 510.022 957.326 445.689 C 995.269 430.227 1035.04 419.697 1075.66 414.358 C 1110.13 409.974 1164.95 411.904 1201.74 411.878 L 1423.44 411.831 C 1494.95 411.851 1559.6 418.009 1623.23 377.586 C 1668.7 349.306 1702.05 305.146 1716.81 253.671 C 1721.7 236.973 1723.38 223.177 1727.09 206.576 C 1727.5 223.119 1722.49 282.33 1717.19 295.492 C 1714.05 300.156 1706.19 327.038 1703.42 334.13 C 1667.06 427.338 1584.72 494.492 1483.88 503.816 C 1452.07 506.757 1418.27 505.692 1386 505.701 L 1216.58 505.817 C 1173.67 505.84 1128.22 503.231 1086.1 511.267 C 998.474 527.987 922.541 578.231 880.088 657.983 C 866.616 683.291 862.746 709.447 848.818 730.93 C 830.487 759.204 785.725 785.578 753.528 793.008 C 733.156 797.709 705.86 801.512 684.263 805.54 z" fill="rgb(53,43,248)" transform="translate(0,0)"></path>
<path d="M 1111.1 608.894 C 1117.68 608.981 1120.35 609.476 1126.83 610.348 C 1121.24 611.077 1116.48 611.941 1110.84 612.178 C 1111.46 611.936 1115.09 610.709 1115.29 610.509 C 1115.05 610.144 1112.48 609.4 1112 609.241 L 1111.1 608.894 z" fill="rgb(30,10,127)" transform="translate(0,0)"></path>
<path d="M 858.329 864.273 C 812.349 739.845 910.827 635.507 1029.95 612.471 C 1058.25 606.998 1082.68 607.639 1111.1 608.894 L 1112 609.241 C 1112.48 609.4 1115.05 610.144 1115.29 610.509 C 1115.09 610.709 1111.46 611.936 1110.84 612.178 C 1075.07 614.44 1036.74 633.79 1012.61 660.469 C 989.846 685.642 972.12 732.588 979.984 766.669 C 979.749 788.684 995.37 814.931 1019.09 816.498 C 1033.8 817.47 1048.78 817.041 1063.54 816.989 L 1150.31 816.855 L 1472.62 816.905 C 1479.52 816.905 1529.42 816.287 1538.43 817.925 C 1538.59 817.955 1538.67 820.05 1538.23 821.718 L 1537.04 820.768 C 1525.99 833.873 1519.43 843.96 1506.73 856.89 C 1468.85 895.137 1418.47 918.466 1364.8 922.609 C 1338.94 924.851 1305.62 923.986 1279.01 924.185 L 1140.72 925.254 C 1113.63 925.45 1082.01 925.052 1055.21 926.456 C 893.485 934.924 727.749 1016.06 622.943 1139.58 C 540.758 1236.43 495.081 1356.48 478.581 1481.5 C 529.814 1463.97 581.95 1460.9 632.154 1449.63 C 599.22 1640.36 676.643 1799.34 880.272 1834.28 C 900.902 1837.71 921.686 1840.14 942.551 1841.55 C 950.737 1842.03 976.791 1842.72 983.358 1843.99 C 941.718 1847.95 889.795 1846.51 847.7 1847.22 C 836.674 1847.41 796.209 1848.04 786.24 1847.01 C 771.862 1848.36 745.768 1850.12 731.725 1850.09 C 715.23 1851.75 695.826 1850.71 679.156 1850.68 C 552.311 1850.46 396.983 1817.04 342.491 1686.19 C 282.88 1572.91 341.153 1359.62 392.446 1251.35 C 411.758 1210.59 437.951 1169.31 464.058 1132.59 C 434.698 1109.44 411.3 1084.73 395.498 1050.21 C 389.749 1006.29 383.75 970.149 405.732 927.934 C 432.655 876.232 479.486 854.24 532.315 836.855 C 585.756 822.011 631.559 815.959 684.733 804.623 C 675.03 850.293 673.032 893.981 680.514 940.163 C 744.183 903.122 789.141 885.658 858.329 864.273 z" fill="rgb(53,43,248)" transform="translate(0,0)"></path>
<path d="M 342.491 1686.19 C 339.324 1666.54 336.597 1652.22 337.451 1632.22 C 341.023 1548.6 404.961 1504.37 478.941 1481.22 C 466.735 1572.38 480.632 1662.03 537.92 1736.43 C 587.638 1800.99 659.58 1831.59 738.409 1841.65 C 746.611 1842.73 754.828 1843.69 763.059 1844.53 C 770.171 1845.74 779.109 1845.75 786.24 1847.01 C 771.862 1848.36 745.768 1850.12 731.725 1850.09 C 715.23 1851.75 695.826 1850.71 679.156 1850.68 C 552.311 1850.46 396.983 1817.04 342.491 1686.19 z" fill="rgb(28,6,98)" transform="translate(0,0)"></path>
<path d="M 763.059 1844.53 C 770.171 1845.74 779.109 1845.75 786.24 1847.01 C 771.862 1848.36 745.768 1850.12 731.725 1850.09 C 741.994 1844.1 755.472 1850.65 763.059 1844.53 z" fill="rgb(30,10,127)" transform="translate(0,0)"></path>
<path d="M 532.315 836.855 C 521.293 902.277 531.759 969.509 562.146 1028.48 C 521.022 1066.44 499.493 1090.35 464.058 1132.59 C 434.698 1109.44 411.3 1084.73 395.498 1050.21 C 389.749 1006.29 383.75 970.149 405.732 927.934 C 432.655 876.232 479.486 854.24 532.315 836.855 z" fill="rgb(28,6,98)" transform="translate(0,0)"></path>
<path d="M 1538.08 822.718 C 1538.09 847.235 1523.8 910.243 1513.37 932.22 C 1511.89 937.45 1508.87 946.971 1506.38 951.783 L 1504.93 952.827 C 1503.59 953.757 1502.67 954.693 1501.74 956.034 C 1494.55 971.188 1486.34 985.837 1477.17 999.88 C 1454.79 1034.33 1425.15 1063.47 1390.32 1085.26 C 1353.17 1108.31 1311.01 1122.06 1267.42 1125.38 C 1251.7 1126.56 1232.37 1126.22 1216.37 1126.4 C 1188.6 1126.76 1160.84 1126.97 1133.07 1127.02 C 1100.13 1127.12 1073.26 1127.56 1040.73 1134.19 C 946.816 1153.34 865.498 1210.53 824.8 1298.82 C 812.061 1321.99 810.374 1350.84 795.656 1372.7 C 773.365 1405.79 731.494 1431 693.021 1439.52 C 672.495 1444.07 652.346 1446.39 632.264 1450.34 C 650.887 1362.56 685.246 1274.72 740.223 1203.13 C 810.985 1111 922.667 1051.19 1037.17 1035.98 C 1083.81 1029.78 1136.94 1031.9 1184.34 1031.95 L 1253.92 1032.02 C 1303.21 1032.06 1338.05 1032.56 1385.14 1013.44 C 1448.97 987.727 1496.16 935.337 1521.43 872.031 C 1527.7 856.329 1531.68 837.336 1538.08 822.718 z" fill="rgb(53,43,248)" transform="translate(0,0)"></path>
<path d="M 1501.74 956.034 C 1503.52 952.033 1511 934.295 1513.37 932.22 C 1511.89 937.45 1508.87 946.971 1506.38 951.783 L 1504.93 952.827 C 1503.59 953.757 1502.67 954.693 1501.74 956.034 z" fill="rgb(30,10,127)" transform="translate(0,0)"></path>
<path d="M 1548.95 1433.77 C 1549.1 1462.17 1532.99 1532.22 1521.65 1558.34 C 1518.81 1560.11 1511.44 1576.64 1509.14 1581.13 C 1498.28 1602.29 1485.13 1622.19 1469.9 1640.46 C 1422.67 1696.28 1355.48 1728.37 1282.99 1733.8 C 1260.55 1735.48 1236.51 1734.95 1213.89 1734.92 L 1114.02 1734.83 L 1016.59 1734.88 C 987.588 1734.89 954.647 1735.99 926.499 1730.19 C 896.559 1723.94 868.676 1710.26 845.424 1690.39 C 789.916 1642.44 774.434 1579.76 769.601 1510.19 C 770.122 1506.73 769.85 1506.3 771.387 1503.2 C 774.758 1516.99 779.695 1530.34 786.104 1543 C 807.952 1586.59 842.774 1615.8 889.023 1630.96 C 904.796 1636.22 921.195 1639.36 937.794 1640.32 C 961.3 1641.88 993.418 1640.93 1017.63 1640.94 L 1161.31 1640.95 L 1271.3 1640.97 C 1292.75 1640.97 1322.14 1641.76 1342.79 1639.37 C 1369.42 1636.33 1395.29 1628.57 1419.2 1616.47 C 1477.79 1586.43 1515.76 1535.35 1537.46 1474.18 C 1542.06 1461.18 1544.6 1447.14 1548.95 1433.77 z" fill="rgb(53,43,248)" transform="translate(0,0)"></path>
<path d="M 1254.48 1430.11 L 1434.83 1430.03 C 1471.14 1430.03 1512.06 1429.06 1547.98 1430.19 C 1548.56 1431.39 1548.77 1431.55 1549.03 1432.83 C 1544.99 1435.22 1539.86 1443.8 1536.8 1447.88 C 1533.68 1452.48 1530 1456.44 1526.34 1460.59 C 1494.07 1497.2 1450.24 1520.57 1402.24 1528.77 C 1377.39 1533.02 1352.34 1532.8 1327.11 1532.87 L 1247.73 1533.17 C 1193.53 1533.83 1115.14 1540.58 1063.74 1531.41 C 1088.39 1513.53 1103.79 1497.7 1125.5 1477.66 C 1152.68 1452.57 1200.6 1438.09 1236.9 1433.05 L 1235.87 1430.07 C 1242.07 1429.93 1248.28 1429.94 1254.48 1430.11 z" fill="rgb(53,43,248)" transform="translate(0,0)"></path>
<path d="M 1235.87 1430.07 C 1242.07 1429.93 1248.28 1429.94 1254.48 1430.11 L 1252.79 1430.71 C 1249.46 1432.01 1240.7 1432.73 1236.9 1433.05 L 1235.87 1430.07 z" fill="rgb(30,10,127)" transform="translate(0,0)"></path>
<path d="M 769.601 1510.19 C 769.456 1509.28 767.993 1498.67 770.391 1499.49 C 771.238 1500.49 771.219 1501.92 771.387 1503.2 C 769.85 1506.3 770.122 1506.73 769.601 1510.19 z" fill="rgb(30,10,127)" transform="translate(0,0)"></path>
<path d="M 1045.78 1226.48 C 1058.28 1226.29 1087.2 1226.9 1098.55 1229.88 C 1060.12 1232.52 1035.57 1235.48 1000.94 1255.92 C 933.621 1295.65 894.899 1387.64 937.967 1458.53 C 965.735 1504.24 1014.41 1519.94 1064 1531.63 C 1038.02 1548.76 1018.28 1557.62 987.763 1564.58 C 979.355 1566.05 970.862 1566.99 962.334 1567.4 C 918.278 1569.42 872.494 1554.83 839.908 1524.9 C 774.422 1464.75 784.321 1374.11 842.706 1312.81 C 899.784 1252.89 965.044 1229.38 1045.78 1226.48 z" fill="rgb(53,43,248)" transform="translate(0,0)"></path>
<metadata><recraft-signature>{"signed_by": "recraft", "signature_b64": "ngbQmEmhcN3vZMd/Zo716aeaRcRHqy3ZBfdRg4bl/FGMz0BmnOyMScmYZg6kOvZC+K6BTkbiNUoONp+MiWb+Cg==", "signing_algo": "Ed25519", "generation_timestamp": 1778846638, "identifier": "027bdc70-c032-4fe3-b916-c0fe55ebe5f1"}</recraft-signature></metadata></svg>